<?xml version="1.0" standalone="no"?>
<!DOCTYPE svg PUBLIC "-//W3C//DTD SVG 20010904//EN"
 "http://www.w3.org/TR/2001/REC-SVG-20010904/DTD/svg10.dtd">
<svg version="1.0" xmlns="http://www.w3.org/2000/svg"
 width="502.000000pt" height="502.000000pt" viewBox="0 0 502.000000 502.000000"
 preserveAspectRatio="xMidYMid meet">
<metadata>
Created by potrace 1.14, written by Peter Selinger 2001-2017
</metadata>
<g transform="translate(0.000000,502.000000) scale(0.100000,-0.100000)"
fill="#000000" stroke="none">
<path d="M2316 4553 c-2 -2 -76 -10 -161 -18 -16 -2 -30 -4 -30 -5 0 -2 -13
-5 -60 -13 -16 -3 -40 -8 -52 -11 -13 -3 -32 -8 -43 -11 -11 -3 -29 -7 -40
-10 -11 -3 -29 -7 -39 -9 -11 -3 -29 -10 -40 -16 -12 -6 -21 -9 -21 -6 0 3
-12 -1 -27 -9 -15 -8 -30 -12 -35 -9 -4 3 -8 0 -8 -6 0 -6 -4 -9 -9 -5 -5 3
-12 1 -16 -5 -4 -6 -11 -8 -16 -5 -5 4 -9 1 -9 -5 0 -7 -7 -10 -15 -6 -8 3
-15 1 -15 -5 0 -6 -4 -7 -10 -4 -5 3 -10 1 -10 -5 0 -6 -4 -8 -10 -5 -5 3 -10
2 -10 -3 0 -9 -47 -27 -62 -24 -5 1 -8 -3 -8 -10 0 -6 -3 -9 -6 -5 -3 3 -15
-3 -27 -13 -11 -11 -24 -17 -29 -14 -4 3 -8 0 -8 -6 0 -6 -4 -8 -10 -5 -5 3
-10 1 -10 -4 0 -6 -6 -11 -14 -11 -8 0 -22 -7 -30 -16 -9 -8 -16 -13 -16 -9 0
3 -6 1 -12 -5 -46 -38 -92 -70 -96 -65 -3 2 -16 -7 -29 -21 -12 -14 -23 -23
-23 -20 0 3 -14 -8 -32 -24 -17 -16 -36 -26 -41 -23 -6 3 -7 2 -4 -4 3 -5 -4
-16 -15 -24 -12 -8 -41 -34 -66 -59 -25 -25 -42 -39 -37 -31 5 10 4 12 -3 7
-7 -4 -12 -14 -12 -22 0 -8 -6 -14 -14 -14 -7 0 -20 -8 -27 -17 -13 -17 -13
-17 6 -3 15 11 14 7 -4 -13 -25 -28 -38 -36 -25 -15 4 7 3 8 -4 4 -7 -4 -12
-14 -12 -21 0 -8 -9 -19 -21 -25 -11 -7 -18 -14 -15 -17 3 -3 -7 -18 -22 -33
-40 -41 -62 -69 -62 -79 0 -5 -10 -16 -23 -25 -12 -9 -15 -14 -7 -10 9 4 7 -1
-5 -14 -35 -37 -46 -52 -38 -52 4 0 3 -4 -3 -8 -7 -4 -23 -28 -37 -54 -14 -26
-28 -44 -31 -40 -4 3 -4 -1 -1 -9 3 -9 -3 -23 -14 -33 -11 -10 -18 -23 -15
-27 3 -5 0 -9 -6 -9 -6 0 -8 -4 -5 -10 3 -5 1 -10 -5 -10 -6 0 -9 -4 -5 -9 3
-5 -2 -17 -11 -25 -8 -9 -13 -16 -9 -16 3 0 -1 -10 -9 -22 -8 -13 -17 -38 -21
-56 -4 -19 -11 -30 -18 -25 -6 4 -8 0 -4 -10 3 -10 2 -17 -4 -17 -6 0 -8 -4
-5 -8 3 -5 -1 -20 -9 -35 -8 -15 -12 -27 -10 -27 2 0 -2 -15 -10 -34 -8 -18
-11 -36 -8 -40 4 -3 1 -6 -6 -6 -7 0 -9 -5 -6 -10 4 -6 2 -17 -4 -24 -7 -8
-11 -18 -10 -22 1 -5 0 -11 -1 -14 -4 -12 -17 -72 -24 -115 -2 -11 -4 -20 -6
-20 -1 0 -3 -13 -6 -30 -2 -16 -6 -48 -9 -70 -22 -164 -22 -367 0 -530 4 -27
8 -61 10 -75 2 -14 4 -25 5 -25 1 0 8 -30 13 -65 1 -8 5 -19 8 -25 4 -5 5 -18
4 -27 -2 -10 1 -18 5 -18 5 0 7 -9 5 -20 -2 -11 0 -20 4 -20 5 0 11 -14 14
-30 7 -34 14 -64 17 -67 2 -2 3 -6 4 -10 1 -5 5 -14 9 -20 5 -7 5 -13 1 -13
-3 0 1 -11 10 -25 9 -14 14 -30 11 -35 -3 -6 -1 -10 5 -10 6 0 8 -4 5 -10 -3
-5 -1 -10 5 -10 6 0 8 -4 5 -10 -3 -5 -1 -10 5 -10 7 0 10 -7 6 -15 -3 -8 -1
-15 5 -15 6 0 8 -4 5 -9 -3 -5 1 -14 9 -21 8 -7 12 -16 9 -21 -3 -5 0 -9 6 -9
6 0 8 -4 5 -10 -3 -5 -1 -10 6 -10 7 0 9 -3 6 -7 -4 -3 -1 -13 5 -21 7 -8 13
-21 14 -30 2 -8 10 -19 19 -24 8 -5 13 -13 10 -19 -4 -5 -1 -9 4 -9 6 0 11 -7
11 -15 0 -8 5 -15 11 -15 5 0 8 -4 5 -8 -3 -5 4 -19 15 -30 11 -12 17 -22 14
-22 -3 0 4 -9 15 -20 11 -11 20 -25 20 -31 0 -6 10 -20 22 -31 13 -11 16 -16
8 -12 -8 4 2 -9 23 -29 22 -22 35 -42 31 -48 -4 -7 -3 -9 3 -6 6 4 17 -1 24
-10 12 -14 12 -16 -1 -8 -8 5 12 -18 45 -51 33 -33 69 -72 79 -87 10 -15 24
-27 30 -27 15 0 46 -36 39 -44 -4 -3 0 -6 7 -6 8 0 25 -12 38 -28 13 -15 20
-20 16 -12 -4 8 5 4 19 -10 46 -43 67 -60 67 -53 0 3 8 -4 19 -15 10 -12 21
-19 25 -15 3 3 6 1 6 -5 0 -7 6 -12 13 -12 7 0 25 -11 40 -25 15 -14 27 -23
27 -19 0 4 13 -4 28 -19 16 -15 31 -24 35 -20 4 3 7 1 7 -6 0 -7 5 -9 10 -6 6
3 10 1 10 -5 0 -6 5 -8 10 -5 6 3 13 -1 16 -9 3 -9 10 -13 15 -10 5 3 9 0 9
-6 0 -6 5 -8 10 -5 6 3 10 1 10 -5 0 -6 5 -8 10 -5 6 3 10 1 10 -5 0 -6 4 -9
9 -5 5 3 17 -2 25 -11 9 -8 16 -12 16 -8 0 4 8 0 18 -9 10 -10 21 -14 24 -11
4 3 17 -2 30 -10 14 -9 28 -13 31 -9 4 3 7 1 7 -6 0 -7 4 -10 9 -6 5 3 12 1
16 -5 4 -6 10 -8 15 -5 5 3 11 1 15 -5 4 -6 11 -8 16 -5 5 4 9 1 9 -5 0 -6 4
-9 10 -5 5 3 17 1 27 -4 10 -6 38 -16 63 -22 25 -7 50 -14 55 -15 6 -2 21 -5
35 -8 14 -3 39 -9 55 -12 17 -4 41 -9 55 -11 14 -2 36 -6 50 -8 76 -14 152
-18 300 -18 142 1 285 7 285 14 0 1 11 2 25 3 14 1 31 5 38 9 6 5 17 5 22 2 6
-3 16 -3 23 2 6 4 20 9 30 10 9 2 25 4 35 6 9 1 23 6 30 10 6 5 16 6 21 2 5
-3 13 0 16 6 4 5 13 8 21 5 7 -3 16 -1 20 5 3 6 12 8 20 5 8 -3 14 -1 14 5 0
6 4 8 9 4 5 -3 13 0 16 6 4 5 13 8 21 5 8 -3 14 -1 14 4 0 6 3 9 8 8 9 -3 103
32 119 44 7 5 17 7 23 3 5 -3 10 -2 10 4 0 10 38 27 53 23 4 -1 7 3 7 9 0 5 5
7 10 4 6 -3 10 -1 10 5 0 6 5 8 10 5 6 -3 13 1 16 10 4 9 13 14 21 11 9 -4 11
-2 7 6 -5 8 -2 9 10 5 9 -4 15 -3 12 1 -3 5 11 14 30 21 18 7 34 17 34 22 0 6
4 8 8 5 5 -3 18 4 30 14 12 11 26 20 32 20 5 0 10 5 10 12 0 6 3 9 6 6 3 -4
14 1 24 10 35 32 50 43 50 37 0 -3 12 7 26 22 15 15 21 19 14 8 -7 -11 3 -3
22 18 18 20 38 37 43 37 6 1 21 14 35 30 13 17 30 30 38 30 7 0 10 5 7 10 -3
6 -2 10 4 10 6 0 29 18 51 40 22 22 38 40 35 40 -3 0 5 11 17 24 13 13 26 21
31 19 4 -2 6 0 5 6 -2 6 8 21 22 33 14 13 21 21 15 18 -6 -3 -3 2 7 12 10 9
18 20 18 25 0 4 14 21 30 37 17 16 30 35 30 43 0 7 5 13 10 13 6 0 10 7 10 16
0 8 5 12 10 9 6 -3 10 3 10 15 0 11 7 23 15 26 8 4 12 10 9 15 -3 5 2 12 10
15 9 3 14 9 12 13 -3 4 9 26 25 50 16 24 29 48 29 54 0 5 8 16 18 24 10 9 11
12 2 7 -8 -4 -4 5 10 21 14 16 19 25 13 21 -9 -5 -11 -2 -7 8 3 9 10 16 16 16
5 0 6 5 3 10 -3 6 -1 10 6 10 7 0 9 3 6 7 -4 3 -2 12 4 20 6 7 8 13 3 13 -5 0
-3 4 3 8 7 4 14 17 16 29 1 12 8 28 15 35 6 8 9 18 5 21 -3 4 -1 13 5 20 7 8
9 17 5 20 -3 4 -1 7 5 7 6 0 9 7 6 15 -4 8 -2 15 3 15 8 0 12 15 15 58 1 6 6
12 11 12 6 0 8 3 5 6 -3 3 1 29 8 57 8 29 17 68 20 87 5 39 11 73 15 80 1 3 3
19 5 35 1 17 6 62 10 100 8 83 8 311 -1 375 -5 43 -10 75 -21 150 -3 19 -7 42
-8 50 -1 9 -5 21 -10 28 -4 6 -5 16 -1 21 3 5 0 13 -6 16 -5 4 -8 13 -5 21 3
7 1 16 -5 19 -5 4 -9 12 -8 18 1 7 -3 25 -9 40 -7 16 -10 33 -6 38 3 5 0 9 -5
9 -6 0 -10 3 -9 8 3 10 -10 49 -33 99 -10 24 -19 49 -19 57 0 8 -5 18 -10 21
-6 4 -8 11 -5 16 4 5 1 9 -6 9 -7 0 -10 3 -6 6 3 3 -4 23 -17 43 -13 20 -21
42 -18 50 3 8 0 11 -7 7 -7 -5 -11 1 -11 13 0 12 -5 21 -11 21 -5 0 -7 5 -4
10 3 6 2 10 -4 10 -5 0 -22 25 -36 55 -15 30 -32 55 -37 55 -5 0 -7 4 -4 9 3
5 -1 11 -9 15 -8 3 -15 12 -15 21 0 8 -5 15 -12 15 -6 0 -9 3 -5 6 6 6 -2 17
-41 59 -13 14 -19 25 -15 25 4 0 0 5 -10 11 -9 6 -14 15 -11 21 4 6 3 8 -3 5
-6 -4 -17 1 -24 10 -12 14 -12 16 1 9 8 -5 3 3 -12 16 -16 14 -28 31 -28 38 0
7 -3 11 -6 8 -6 -6 -54 35 -54 46 0 4 -14 21 -32 39 -17 18 -25 23 -17 12 10
-16 8 -15 -13 4 -15 13 -26 29 -25 35 1 6 -4 10 -11 8 -7 -1 -15 5 -18 13 -4
8 -11 15 -18 15 -6 0 -26 17 -45 37 -18 21 -30 31 -27 23 4 -8 -1 -5 -10 8 -9
12 -23 22 -31 22 -8 0 -11 5 -8 10 3 6 1 10 -6 10 -6 0 -18 8 -26 18 -8 9 -11
11 -8 4 6 -11 3 -11 -14 0 -12 7 -21 16 -21 19 0 4 -8 9 -17 13 -10 3 -31 15
-48 26 -16 11 -38 23 -47 26 -10 4 -18 11 -18 17 0 6 -3 7 -7 4 -3 -4 -12 1
-20 11 -10 11 -12 12 -8 2 5 -12 4 -12 -7 1 -14 17 -15 17 -48 26 -11 3 -20 9
-20 14 0 5 -7 5 -17 2 -11 -4 -14 -3 -9 5 5 8 2 10 -8 6 -9 -3 -16 -1 -16 6 0
6 -4 8 -10 5 -5 -3 -10 -1 -10 6 0 7 -3 9 -6 6 -4 -3 -16 -1 -28 5 -11 7 -23
13 -26 14 -3 0 -13 4 -22 7 -45 17 -54 20 -73 24 -10 2 -23 9 -27 16 -4 6 -8
9 -8 5 0 -4 -11 -3 -25 2 -14 5 -38 12 -53 15 -38 8 -57 13 -57 15 0 2 -21 6
-69 14 -21 3 -42 8 -46 11 -4 2 -33 7 -66 10 -32 4 -75 9 -94 12 -35 5 -350
10 -354 6z"/>
</g>
</svg>
